<svg xmlns="http://www.w3.org/2000/svg" width="39.001" height="39" viewBox="0 0 39.001 39"><defs><style>.a{fill:#2094b7;opacity:0.4;}</style></defs><path class="a" d="M19.5,39A19.5,19.5,0,0,1,5.71,5.709,19.5,19.5,0,1,1,33.287,33.287,19.373,19.373,0,0,1,19.5,39ZM16.227,9.045a1.468,1.468,0,0,0-1.042,2.507l7.785,7.791-7.791,7.785a1.469,1.469,0,0,0,1.039,2.508,1.478,1.478,0,0,0,1.045-.43l8.827-8.821a1.465,1.465,0,0,0,.042-2.029L17.269,9.474A1.466,1.466,0,0,0,16.227,9.045Z" transform="translate(38.999 38.998) rotate(180)"/></svg>