<svg xmlns="http://www.w3.org/2000/svg" width="39.002" height="39.002" viewBox="0 0 39.002 39.002"><defs><style>.a{fill:#2094b7;opacity:0.4;}</style></defs><path class="a" d="M392.5-13797a19.378,19.378,0,0,1-13.79-5.711A19.374,19.374,0,0,1,373-13816.5a19.373,19.373,0,0,1,5.711-13.787A19.364,19.364,0,0,1,392.5-13836a19.364,19.364,0,0,1,13.787,5.715A19.369,19.369,0,0,1,412-13816.5a19.37,19.37,0,0,1-5.714,13.789A19.378,19.378,0,0,1,392.5-13797Zm-3.281-29.639a1.461,1.461,0,0,0-1.038.43,1.445,1.445,0,0,0-.432,1.035,1.467,1.467,0,0,0,.432,1.049l7.785,7.785-7.785,7.785a1.487,1.487,0,0,0,0,2.082,1.51,1.51,0,0,0,1.049.432,1.5,1.5,0,0,0,1.042-.432l8.862-8.881a1.467,1.467,0,0,0-.042-2.029l-8.827-8.826A1.483,1.483,0,0,0,389.221-13826.641Z" transform="translate(-373.001 13836.004)"/></svg>