<svg xmlns="http://www.w3.org/2000/svg" width="39.361" height="39.361" viewBox="0 0 39.361 39.361"><defs><style>.a{opacity:0.7;}.b{fill:none;stroke:#ff3a00;stroke-linecap:round;stroke-linejoin:round;stroke-width:1.5px;}</style></defs><g class="a" transform="translate(-46.75 11.649)"><g transform="translate(47.5 -10.899)"><path class="b" d="M19.068,37.861a3.446,3.446,0,0,1-3.442-3.442v-.154a2.824,2.824,0,0,0-1.859-2.6,2.839,2.839,0,0,0-3.132.568l-.1.1A3.465,3.465,0,0,1,8.1,33.347,3.446,3.446,0,0,1,4.652,29.9a3.465,3.465,0,0,1,1.009-2.435l.1-.1A2.863,2.863,0,0,0,3.735,22.51H3.442a3.442,3.442,0,1,1,0-6.884H3.6a2.822,2.822,0,0,0,2.6-1.858,2.827,2.827,0,0,0-.568-3.133l-.1-.1A3.422,3.422,0,0,1,4.515,8.1,3.465,3.465,0,0,1,5.524,5.662,3.422,3.422,0,0,1,7.96,4.652a3.465,3.465,0,0,1,2.435,1.009l.1.1a2.839,2.839,0,0,0,3.132.568h.138a2.838,2.838,0,0,0,1.721-2.6V3.442a3.442,3.442,0,0,1,6.884,0V3.6a2.86,2.86,0,0,0,4.853,2.031l.1-.1a3.422,3.422,0,0,1,2.436-1.009,3.446,3.446,0,0,1,3.444,3.444A3.422,3.422,0,0,1,32.2,10.395l-.1.1a2.827,2.827,0,0,0-.568,3.133v.138a2.836,2.836,0,0,0,2.6,1.72h.293a3.442,3.442,0,0,1,0,6.884h-.155a2.863,2.863,0,0,0-2.031,4.853l.1.1a3.465,3.465,0,0,1,1.009,2.435A3.422,3.422,0,0,1,32.337,32.2,3.465,3.465,0,0,1,29.9,33.209,3.422,3.422,0,0,1,27.467,32.2l-.1-.1a2.863,2.863,0,0,0-4.853,2.031v.292A3.446,3.446,0,0,1,19.068,37.861Zm-.138-24.094a5.163,5.163,0,1,0,5.163,5.163A5.169,5.169,0,0,0,18.931,13.767Z" transform="translate(0 0)"/></g></g></svg>