<svg xmlns="http://www.w3.org/2000/svg" width="65.296" height="22.229" viewBox="0 0 65.296 22.229"><defs><style>.a,.b{fill:#2094b7;}.b{font-size:11px;font-family:FuturaBT-Medium, Futura Md BT;font-weight:500;}</style></defs><path class="a" d="M9.725,11.114A5.557,5.557,0,1,0,4.168,5.557,5.557,5.557,0,0,0,9.725,11.114Zm3.89,1.389H12.89a7.558,7.558,0,0,1-6.33,0H5.835A5.837,5.837,0,0,0,0,18.339v1.806a2.084,2.084,0,0,0,2.084,2.084H17.366a2.084,2.084,0,0,0,2.084-2.084V18.339A5.837,5.837,0,0,0,13.615,12.5Z"/><text class="b" transform="translate(24.296 14.084)"><tspan x="0" y="0">Account</tspan></text></svg>