<svg xmlns="http://www.w3.org/2000/svg" width="64.105" height="25.25" viewBox="0 0 64.105 25.25"><defs><style>.a{fill:#fff;}</style></defs><path class="a" d="M2537.368-13224.75a2.369,2.369,0,0,1-2.368-2.367v-2.055a6.631,6.631,0,0,1,6.63-6.631h.818a8.589,8.589,0,0,0,3.6.793,8.568,8.568,0,0,0,3.6-.793h.818a6.631,6.631,0,0,1,6.63,6.631v2.055a2.368,2.368,0,0,1-2.367,2.367Zm47.021-8.7a3.128,3.128,0,0,1-.585-2.121v-2.521h1.164v2.867a1.535,1.535,0,0,0,.306,1.063,1.34,1.34,0,0,0,1,.32,1.314,1.314,0,0,0,.991-.32,1.5,1.5,0,0,0,.306-1.062v-2.867h1.17v2.521a3.2,3.2,0,0,1-.585,2.121,2.4,2.4,0,0,1-1.875.658A2.425,2.425,0,0,1,2584.389-13233.447Zm-5.659.451a2.823,2.823,0,0,1-.911-.6,2.843,2.843,0,0,1-.612-.893,2.693,2.693,0,0,1-.206-1.057,2.542,2.542,0,0,1,.212-1.051,2.666,2.666,0,0,1,.605-.885,2.691,2.691,0,0,1,.9-.584,2.772,2.772,0,0,1,1.071-.207,2.812,2.812,0,0,1,1.083.207,2.686,2.686,0,0,1,.9.6,2.711,2.711,0,0,1,.612.885,2.652,2.652,0,0,1,.212,1.037,2.645,2.645,0,0,1-.206,1.057,2.547,2.547,0,0,1-.6.879,2.867,2.867,0,0,1-.931.611,2.771,2.771,0,0,1-1.07.207A2.742,2.742,0,0,1,2578.73-13233Zm-.04-3.736a1.707,1.707,0,0,0-.459,1.2,1.683,1.683,0,0,0,.459,1.2,1.452,1.452,0,0,0,1.11.492,1.456,1.456,0,0,0,1.117-.492,1.683,1.683,0,0,0,.459-1.2,1.707,1.707,0,0,0-.459-1.2,1.477,1.477,0,0,0-1.117-.492A1.493,1.493,0,0,0,2578.69-13236.732Zm-5.932,3.178a2.668,2.668,0,0,1-.751-1.975,2.633,2.633,0,0,1,.778-1.982,2.814,2.814,0,0,1,2.042-.758,3.143,3.143,0,0,1,.731.08,2.385,2.385,0,0,1,.625.24v1.309a1.8,1.8,0,0,0-.625-.451,1.863,1.863,0,0,0-.771-.152,1.491,1.491,0,0,0-1.144.457,1.731,1.731,0,0,0-.432,1.225,1.753,1.753,0,0,0,.432,1.25,1.571,1.571,0,0,0,1.2.453,1.73,1.73,0,0,0,.758-.16,1.671,1.671,0,0,0,.585-.479v1.342a2.7,2.7,0,0,1-.691.273,3.245,3.245,0,0,1-.778.094A2.626,2.626,0,0,1,2572.759-13233.555Zm-4.994,0a2.673,2.673,0,0,1-.758-1.975,2.637,2.637,0,0,1,.785-1.982,2.814,2.814,0,0,1,2.042-.758,3.143,3.143,0,0,1,.731.08,2.388,2.388,0,0,1,.625.24v1.309a1.8,1.8,0,0,0-.625-.451,1.862,1.862,0,0,0-.771-.152,1.491,1.491,0,0,0-1.144.457,1.733,1.733,0,0,0-.432,1.225,1.755,1.755,0,0,0,.432,1.25,1.562,1.562,0,0,0,1.2.453,1.771,1.771,0,0,0,.758-.16,1.731,1.731,0,0,0,.585-.479v1.342a2.706,2.706,0,0,1-.692.273,3.26,3.26,0,0,1-.785.094A2.612,2.612,0,0,1,2567.765-13233.555Zm29.286.553v-4.07h-.891v-1.018h.891v-1.928h1.164v1.928h.891v1.018h-.891v4.07Zm-3.006,0v-2.613a2.519,2.519,0,0,0-.239-1.338,1.023,1.023,0,0,0-.871-.326,1.683,1.683,0,0,0-.725.146,1.267,1.267,0,0,0-.505.426,1.138,1.138,0,0,0-.18.473,5.781,5.781,0,0,0-.053.91v2.322h-1.164v-5.088h1.1v.832a2.2,2.2,0,0,1,.825-.771,2.5,2.5,0,0,1,1.144-.24,2.375,2.375,0,0,1,.971.18,1.4,1.4,0,0,1,.625.531,1.471,1.471,0,0,1,.193.492,5.4,5.4,0,0,1,.06.979v3.086Zm-28.654,0-.891-2.021h-3.112l-.917,2.021h-1.337l3.8-8.174,3.8,8.174Zm-2.58-5.293c-.047.152-.093.285-.146.412l-.8,1.795h2.188l-.8-1.795c-.046-.113-.093-.246-.146-.393s-.1-.32-.146-.5C2562.9-13238.6,2562.864-13238.441,2562.811-13238.295Zm-23.075-5.395a6.312,6.312,0,0,1,6.311-6.311,6.312,6.312,0,0,1,6.311,6.311,6.312,6.312,0,0,1-6.311,6.311A6.312,6.312,0,0,1,2539.735-13243.689Z" transform="translate(-2535 13250)"/></svg>