<svg xmlns="http://www.w3.org/2000/svg" width="79" height="34.067" viewBox="0 0 79 34.067"><defs><style>.a{fill:#fff;}</style></defs><path class="a" d="M0,34.068v-4H79v4ZM8.469,24.3a2.278,2.278,0,0,1-2.278-2.277V20.044a6.379,6.379,0,0,1,6.378-6.377h.792a8.256,8.256,0,0,0,6.918,0h.793a6.379,6.379,0,0,1,6.377,6.377v1.975A2.278,2.278,0,0,1,25.172,24.3Zm48.921-8.59a3.154,3.154,0,0,1-.586-2.128V11.059h1.166v2.868a1.516,1.516,0,0,0,.306,1.064,1.693,1.693,0,0,0,1.987,0,1.516,1.516,0,0,0,.306-1.064V11.059h1.166v2.519a3.163,3.163,0,0,1-.585,2.122,2.38,2.38,0,0,1-1.869.661A2.422,2.422,0,0,1,57.39,15.706Zm-5.661.448a2.831,2.831,0,0,1-1.52-1.49,2.739,2.739,0,0,1,0-2.109,2.7,2.7,0,0,1,.609-.883,2.74,2.74,0,0,1,.9-.586,2.933,2.933,0,0,1,2.151,0,2.743,2.743,0,0,1,.911.6,2.7,2.7,0,0,1,.612.886,2.632,2.632,0,0,1,.21,1.037,2.717,2.717,0,0,1-.207,1.058,2.6,2.6,0,0,1-.6.876,2.922,2.922,0,0,1-.93.609,2.837,2.837,0,0,1-1.075.207A2.808,2.808,0,0,1,51.729,16.154Zm-.041-3.733a1.8,1.8,0,0,0,0,2.4,1.51,1.51,0,0,0,2.229,0,1.8,1.8,0,0,0,0-2.4,1.513,1.513,0,0,0-2.232,0ZM45.76,15.6A2.69,2.69,0,0,1,45,13.622a2.636,2.636,0,0,1,.781-1.984,2.819,2.819,0,0,1,2.044-.755,3.193,3.193,0,0,1,.731.078,2.432,2.432,0,0,1,.623.238V12.51a1.835,1.835,0,0,0-.625-.452,1.915,1.915,0,0,0-.771-.156,1.487,1.487,0,0,0-1.144.463,1.725,1.725,0,0,0-.429,1.224,1.738,1.738,0,0,0,.432,1.249,1.574,1.574,0,0,0,1.2.454,1.751,1.751,0,0,0,.758-.158,1.633,1.633,0,0,0,.585-.481V16a2.709,2.709,0,0,1-.69.274,3.215,3.215,0,0,1-.781.092A2.627,2.627,0,0,1,45.76,15.6Zm-5,0a2.689,2.689,0,0,1-.754-1.976,2.633,2.633,0,0,1,.781-1.984,2.819,2.819,0,0,1,2.044-.755,3.2,3.2,0,0,1,.731.078,2.432,2.432,0,0,1,.623.238V12.51a1.835,1.835,0,0,0-.625-.452,1.915,1.915,0,0,0-.771-.156,1.485,1.485,0,0,0-1.144.463,1.725,1.725,0,0,0-.429,1.224,1.738,1.738,0,0,0,.432,1.249,1.572,1.572,0,0,0,1.2.454,1.744,1.744,0,0,0,.757-.158,1.628,1.628,0,0,0,.586-.481V16a2.709,2.709,0,0,1-.69.274,3.215,3.215,0,0,1-.781.092A2.629,2.629,0,0,1,40.764,15.6Zm29.286.553V12.08h-.891V11.059h.891V9.131h1.165v1.928h.892V12.08h-.892v4.072Zm-3,0V13.536A2.468,2.468,0,0,0,66.8,12.2a1.015,1.015,0,0,0-.868-.33,1.685,1.685,0,0,0-.728.151,1.209,1.209,0,0,0-.5.424,1.163,1.163,0,0,0-.18.47,5.934,5.934,0,0,0-.05.916v2.32H63.31V11.059h1.1v.833a2.2,2.2,0,0,1,.822-.768,2.5,2.5,0,0,1,1.149-.242,2.356,2.356,0,0,1,.969.18,1.412,1.412,0,0,1,.626.535,1.466,1.466,0,0,1,.193.489,5.531,5.531,0,0,1,.059.977v3.089Zm-28.654,0L37.5,14.126H34.386l-.913,2.025H32.13l3.808-8.175,3.8,8.175Zm-2.581-5.293c-.049.148-.1.285-.148.41l-.806,1.794H37.05l-.806-1.794q-.069-.171-.145-.4t-.15-.5C35.906,10.549,35.861,10.709,35.812,10.859ZM10.747,6.074a6.074,6.074,0,1,1,6.074,6.074A6.073,6.073,0,0,1,10.747,6.074Z"/></svg>