<svg xmlns="http://www.w3.org/2000/svg" width="110" height="72" viewBox="0 0 110 72"><defs><style>.a{fill:#2094b7;}</style></defs><path class="a" d="M74,72H0V0H74A36.01,36.01,0,0,1,88.013,69.171,35.785,35.785,0,0,1,74,72ZM30.835,37.5A5.841,5.841,0,0,0,25,43.339v1.806a2.086,2.086,0,0,0,2.083,2.084H42.366a2.086,2.086,0,0,0,2.084-2.084V43.339A5.841,5.841,0,0,0,38.615,37.5H37.89a7.564,7.564,0,0,1-6.33,0Zm39.082-2.133v2.291a2.879,2.879,0,0,0,.532,1.933,2.212,2.212,0,0,0,1.719.6,2.171,2.171,0,0,0,1.7-.6,2.884,2.884,0,0,0,.532-1.929V35.371H73.339v2.607a1.386,1.386,0,0,1-.278.968,1.541,1.541,0,0,1-1.806,0,1.382,1.382,0,0,1-.279-.968V35.371Zm-3.648-.161a2.606,2.606,0,0,0-.971.185,2.51,2.51,0,0,0-.821.533,2.48,2.48,0,0,0-.554.8,2.492,2.492,0,0,0,0,1.917A2.57,2.57,0,0,0,65.3,40a2.6,2.6,0,0,0,1.943,0,2.643,2.643,0,0,0,.845-.554,2.344,2.344,0,0,0,.549-.8,2.468,2.468,0,0,0,.188-.962,2.4,2.4,0,0,0-.19-.942,2.466,2.466,0,0,0-.557-.806,2.508,2.508,0,0,0-.828-.547A2.626,2.626,0,0,0,66.269,35.21Zm-4.512,0A2.573,2.573,0,0,0,59.9,35.9a2.408,2.408,0,0,0-.71,1.8,2.458,2.458,0,0,0,.686,1.8,2.4,2.4,0,0,0,1.775.693,2.967,2.967,0,0,0,.71-.083,2.5,2.5,0,0,0,.627-.249v-1.22a1.488,1.488,0,0,1-.532.437,1.586,1.586,0,0,1-.688.144,1.434,1.434,0,0,1-1.086-.412,1.808,1.808,0,0,1,0-2.248,1.361,1.361,0,0,1,1.04-.42,1.736,1.736,0,0,1,.7.141,1.653,1.653,0,0,1,.569.41V35.5a2.191,2.191,0,0,0-.566-.217A2.9,2.9,0,0,0,61.757,35.21Zm-4.54,0a2.577,2.577,0,0,0-1.859.686,2.408,2.408,0,0,0-.71,1.8,2.458,2.458,0,0,0,.686,1.8,2.4,2.4,0,0,0,1.775.693,2.982,2.982,0,0,0,.711-.083,2.512,2.512,0,0,0,.627-.249v-1.22a1.483,1.483,0,0,1-.533.437,1.584,1.584,0,0,1-.688.144,1.437,1.437,0,0,1-1.087-.412,1.809,1.809,0,0,1,0-2.248,1.357,1.357,0,0,1,1.04-.42,1.744,1.744,0,0,1,.7.141,1.671,1.671,0,0,1,.569.41V35.5a2.192,2.192,0,0,0-.566-.217A2.913,2.913,0,0,0,57.217,35.21Zm23.93.161V36.3h.811V40h1.059V36.3h.811v-.928h-.811V33.619H81.958v1.752Zm-2.929.737a.924.924,0,0,1,.788.3,2.249,2.249,0,0,1,.222,1.213V40H80.3V37.193a5.075,5.075,0,0,0-.053-.889,1.321,1.321,0,0,0-.176-.444,1.281,1.281,0,0,0-.569-.486,2.15,2.15,0,0,0-.881-.164,2.291,2.291,0,0,0-1.045.22,2.011,2.011,0,0,0-.747.7v-.757h-1V40h1.059V37.891a5.323,5.323,0,0,1,.047-.832,1.049,1.049,0,0,1,.164-.427,1.1,1.1,0,0,1,.456-.386A1.545,1.545,0,0,1,78.217,36.108ZM49.536,38.159h2.831L53.178,40H54.4l-3.457-7.431L47.485,40h1.22l.83-1.84ZM34.725,25a5.557,5.557,0,1,0,5.557,5.557A5.563,5.563,0,0,0,34.725,25ZM66.279,39.238a1.343,1.343,0,0,1-1.013-.446,1.635,1.635,0,0,1,0-2.182,1.375,1.375,0,0,1,2.029,0,1.639,1.639,0,0,1,0,2.182A1.34,1.34,0,0,1,66.279,39.238ZM51.958,37.193H49.965l.733-1.631c.047-.12.092-.245.134-.373s.086-.282.124-.437c.041.15.087.3.137.452.046.134.09.255.132.359l.732,1.629Z"/></svg>