<svg xmlns="http://www.w3.org/2000/svg" width="71.547" height="25.633" viewBox="0 0 71.547 25.633"><defs><style>.a{fill:#fff;}</style></defs><path class="a" d="M2637.888-13229.369a.849.849,0,0,1-.852-.852v-5.979h-8.546v5.979a.849.849,0,0,1-.852.852h-3.419a.848.848,0,0,1-.851-.852v-11.428a5.1,5.1,0,0,1-3.419-4.809,1.709,1.709,0,0,1,1.709-1.709,1.709,1.709,0,0,1,1.709,1.709,1.71,1.71,0,0,0,1.709,1.711h9.079l8.008,2.859v11.666a.854.854,0,0,1-.858.852Zm50.29-8.7a1.912,1.912,0,0,1-.778-.852l.971-.525a.958.958,0,0,0,.4.572,1.281,1.281,0,0,0,.745.2.915.915,0,0,0,.612-.18.584.584,0,0,0,.227-.492c0-.273-.266-.512-.8-.705-.18-.066-.312-.121-.413-.16a3.386,3.386,0,0,1-1.144-.691,1.2,1.2,0,0,1-.319-.846,1.34,1.34,0,0,1,.532-1.109,2.219,2.219,0,0,1,1.417-.42,2.26,2.26,0,0,1,1.011.213,1.331,1.331,0,0,1,.612.625l-.825.566a.73.73,0,0,0-.319-.379.943.943,0,0,0-.532-.146.837.837,0,0,0-.532.158.513.513,0,0,0-.2.42c0,.266.3.506.9.725.193.074.339.127.446.166a2.6,2.6,0,0,1,1,.633,1.272,1.272,0,0,1,.306.877,1.443,1.443,0,0,1-.552,1.2,2.439,2.439,0,0,1-1.53.434A2.476,2.476,0,0,1,2688.178-13238.068Zm-9.232-.459a3.051,3.051,0,0,1-.618-2.023,2.933,2.933,0,0,1,.632-1.969,2.06,2.06,0,0,1,1.656-.75,2.078,2.078,0,0,1,1.064.258,1.551,1.551,0,0,1,.645.752v-.83h1.171v5.088h-1.171v-.658a2.069,2.069,0,0,1-.725.658,2.117,2.117,0,0,1-.951.213A2.1,2.1,0,0,1,2678.946-13238.527Zm.978-3.254a1.926,1.926,0,0,0-.379,1.264,1.9,1.9,0,0,0,.366,1.252,1.271,1.271,0,0,0,1.031.438,1.267,1.267,0,0,0,1.024-.479,1.93,1.93,0,0,0,.392-1.256,1.858,1.858,0,0,0-.366-1.23,1.275,1.275,0,0,0-1.031-.439A1.289,1.289,0,0,0,2679.924-13241.781Zm5.234,3.779v-8.322h1.164v8.322Zm-9.185,0v-2.615a2.726,2.726,0,0,0-.22-1.35.853.853,0,0,0-.771-.326,1.1,1.1,0,0,0-.984.439,2.951,2.951,0,0,0-.292,1.537v2.314h-1.177v-2.615a2.658,2.658,0,0,0-.227-1.311.845.845,0,0,0-.785-.365,1.345,1.345,0,0,0-.632.152,1.291,1.291,0,0,0-.452.434,1.3,1.3,0,0,0-.146.439,5.982,5.982,0,0,0-.046.951v2.314h-1.164v-5.088h1.1v.83a2.32,2.32,0,0,1,.792-.777,2.158,2.158,0,0,1,1.044-.24,1.829,1.829,0,0,1,.991.246,1.536,1.536,0,0,1,.592.758,2.8,2.8,0,0,1,.858-.764,2.177,2.177,0,0,1,1.031-.24,1.939,1.939,0,0,1,.884.188,1.311,1.311,0,0,1,.585.537,1.092,1.092,0,0,1,.14.4,3.3,3.3,0,0,1,.046.658v3.492Zm-9.724,0v-5.088h1.164v5.088Zm-2.787,0v-2.615a2.44,2.44,0,0,0-.246-1.336,1,1,0,0,0-.865-.326,1.683,1.683,0,0,0-.725.146,1.272,1.272,0,0,0-.506.426,1.171,1.171,0,0,0-.179.473,5.88,5.88,0,0,0-.053.918v2.314h-1.164v-5.088h1.1v.83a2.166,2.166,0,0,1,.818-.764,2.43,2.43,0,0,1,1.15-.246,2.344,2.344,0,0,1,.971.18,1.413,1.413,0,0,1,.625.537,1.4,1.4,0,0,1,.193.486,5.418,5.418,0,0,1,.06.979v3.086Zm-5.727,0-.891-2.023h-3.12l-.911,2.023h-1.344l3.812-8.176,3.8,8.176Zm-2.581-5.289c-.053.146-.1.279-.153.406l-.8,1.8h2.195l-.8-1.8c-.046-.113-.1-.246-.146-.393s-.1-.312-.153-.5C2655.248-13243.6,2655.2-13243.443,2655.155-13243.291Zm-19.827-2.854v-8a.853.853,0,0,1,1.457-.605l1.457,1.457h2.867a1.711,1.711,0,0,1,1.53.951l.379.758h3.419a.853.853,0,0,1,.851.857v1.709a3.417,3.417,0,0,1-3.412,3.42h-1.709v1.895Zm4.27-3.73a.859.859,0,0,0,.858.857.853.853,0,0,0,.851-.857.848.848,0,0,0-.851-.852A.854.854,0,0,0,2639.6-13249.875Zm26.711,5.1a.713.713,0,0,1-.219-.52.7.7,0,0,1,.219-.512.734.734,0,0,1,.519-.213.7.7,0,0,1,.519.207.712.712,0,0,1,.207.518.732.732,0,0,1-.213.525.7.7,0,0,1-.512.207A.734.734,0,0,1,2666.309-13244.773Z" transform="translate(-2619.95 13255.002)"/></svg>