<svg xmlns="http://www.w3.org/2000/svg" width="79" height="37" viewBox="0 0 79 37"><defs><style>.a{fill:#fff;}</style></defs><path class="a" d="M0,37V33H79v4ZM21.506,26.681a.892.892,0,0,1-.89-.89V19.564H11.725v6.227a.893.893,0,0,1-.891.89H7.276a.889.889,0,0,1-.886-.89V13.9A5.33,5.33,0,0,1,2.831,8.893a1.779,1.779,0,0,1,3.559,0,1.781,1.781,0,0,0,1.778,1.78h9.452l8.334,2.974V25.791a.89.89,0,0,1-.887.89Zm50.67-9.751a1.875,1.875,0,0,1-.773-.854l.967-.527a.994.994,0,0,0,.4.581,1.286,1.286,0,0,0,.746.2.951.951,0,0,0,.615-.18.6.6,0,0,0,.221-.491c0-.275-.265-.511-.793-.709-.178-.063-.319-.117-.413-.161A3.318,3.318,0,0,1,72,14.1a1.21,1.21,0,0,1-.327-.85,1.348,1.348,0,0,1,.535-1.106,2.219,2.219,0,0,1,1.418-.423,2.182,2.182,0,0,1,1.011.215,1.363,1.363,0,0,1,.616.622l-.827.567a.764.764,0,0,0-.319-.382,1,1,0,0,0-.53-.141.842.842,0,0,0-.535.158.508.508,0,0,0-.2.423c0,.262.3.5.9.723.188.067.337.124.44.168a2.56,2.56,0,0,1,1.005.631,1.282,1.282,0,0,1,.306.878,1.435,1.435,0,0,1-.555,1.2,2.43,2.43,0,0,1-1.525.43A2.5,2.5,0,0,1,72.176,16.93Zm-9.23-.46a3.039,3.039,0,0,1-.622-2.02,2.94,2.94,0,0,1,.635-1.969,2.063,2.063,0,0,1,1.653-.75,2.113,2.113,0,0,1,1.069.258,1.519,1.519,0,0,1,.644.751v-.83h1.166V17H66.326v-.662a1.928,1.928,0,0,1-1.679.87A2.1,2.1,0,0,1,62.946,16.47Zm.977-3.249a1.915,1.915,0,0,0-.38,1.259,1.926,1.926,0,0,0,.366,1.254,1.378,1.378,0,0,0,2.053-.037,1.9,1.9,0,0,0,.4-1.26,1.871,1.871,0,0,0-.37-1.23,1.417,1.417,0,0,0-2.066.014ZM69.159,17V8.674h1.166V17Zm-9.187,0V14.387a2.779,2.779,0,0,0-.215-1.354.876.876,0,0,0-.776-.322,1.092,1.092,0,0,0-.982.436,2.924,2.924,0,0,0-.292,1.533V17H56.531V14.387a2.662,2.662,0,0,0-.229-1.31.847.847,0,0,0-.787-.366,1.27,1.27,0,0,0-.628.155,1.176,1.176,0,0,0-.454.429,1.213,1.213,0,0,0-.148.434,6.544,6.544,0,0,0-.044.951V17H53.077v-5.09h1.1v.83a2.3,2.3,0,0,1,.793-.777,2.137,2.137,0,0,1,1.045-.242,1.786,1.786,0,0,1,.988.249,1.54,1.54,0,0,1,.595.759,2.665,2.665,0,0,1,.857-.766,2.159,2.159,0,0,1,1.035-.242,1.965,1.965,0,0,1,.88.184,1.356,1.356,0,0,1,.585.538,1.34,1.34,0,0,1,.144.4,3.618,3.618,0,0,1,.044.659V17Zm-9.724,0v-5.09h1.166V17Zm-2.783,0V14.387a2.487,2.487,0,0,0-.245-1.337,1.02,1.02,0,0,0-.867-.329,1.679,1.679,0,0,0-.729.151,1.186,1.186,0,0,0-.5.423,1.13,1.13,0,0,0-.181.471,5.783,5.783,0,0,0-.051.914V17H43.725v-5.09h1.1v.83a2.219,2.219,0,0,1,.824-.767,2.5,2.5,0,0,1,1.149-.242,2.36,2.36,0,0,1,.967.179,1.41,1.41,0,0,1,.628.534,1.518,1.518,0,0,1,.192.49,5.286,5.286,0,0,1,.06.977V17Zm-5.732,0-.89-2.027H37.726L36.813,17H35.468l3.811-8.176L43.079,17Zm-2.58-5.293c-.048.149-.1.286-.149.41L38.2,13.912h2.194l-.806-1.794c-.047-.114-.094-.249-.144-.4s-.1-.312-.151-.494C39.245,11.4,39.2,11.557,39.152,11.708ZM18.839,9.218V.892A.889.889,0,0,1,20.357.263l1.516,1.516h2.981a1.779,1.779,0,0,1,1.593.985l.4.793H30.4a.89.89,0,0,1,.887.89V6.224a3.555,3.555,0,0,1-3.555,3.559H25.952v1.979Zm4.445-3.881a.891.891,0,1,0,.891-.891A.889.889,0,0,0,23.284,5.337Zm27.023,4.89A.723.723,0,0,1,50.09,9.7a.7.7,0,0,1,.218-.51.726.726,0,0,1,.518-.215.715.715,0,0,1,.521.208.7.7,0,0,1,.205.517.721.721,0,0,1-.209.525.7.7,0,0,1-.517.212A.711.711,0,0,1,50.307,10.227Z"/></svg>