<svg xmlns="http://www.w3.org/2000/svg" width="68.636" height="21.834" viewBox="0 0 68.636 21.834"><defs><style>.a,.b{fill:#2094b7;}.b{font-size:11px;font-family:FuturaBT-Medium, Futura Md BT;font-weight:500;}</style></defs><path class="a" d="M22.562,5.161H19.651l-.326-.651a1.456,1.456,0,0,0-1.3-.8H15.584L14.343,2.465a.728.728,0,0,0-1.243.514V9.8l5.822,2.079V10.256h1.456A2.911,2.911,0,0,0,23.29,7.345V5.889A.728.728,0,0,0,22.562,5.161ZM17.467,7.345a.728.728,0,1,1,.728-.728A.728.728,0,0,1,17.467,7.345Zm-13.1,3.639A1.458,1.458,0,0,1,2.911,9.528,1.456,1.456,0,0,0,0,9.528a4.359,4.359,0,0,0,2.911,4.1v9.73a.728.728,0,0,0,.728.728H6.55a.728.728,0,0,0,.728-.728V18.262h7.278v5.095a.728.728,0,0,0,.728.728H18.2a.728.728,0,0,0,.728-.728V13.42L12.1,10.984Z" transform="translate(0 -2.25)"/><text class="b" transform="translate(27.636 14.084)"><tspan x="0" y="0">Animals</tspan></text></svg>