<svg xmlns="http://www.w3.org/2000/svg" width="91" height="47" viewBox="0 0 91 47"><defs><style>.a{fill:#2094b7;}</style></defs><path class="a" d="M67.5,47h-44A23.5,23.5,0,0,1,6.883,6.883,23.346,23.346,0,0,1,23.5,0h44A23.5,23.5,0,0,1,84.117,40.117,23.346,23.346,0,0,1,67.5,47ZM26.686,13A7.7,7.7,0,0,0,19,20.686c0,2.977,2.09,6.7,3.843,9.3a50.309,50.309,0,0,0,3.843,4.975,50.109,50.109,0,0,0,3.843-4.975c1.753-2.6,3.843-6.321,3.843-9.3A7.694,7.694,0,0,0,26.686,13Zm33.363,8.815a2.578,2.578,0,0,0-1.925.771,2.719,2.719,0,0,0-.75,1.968,2.75,2.75,0,0,0,.725,1.993,2.6,2.6,0,0,0,1.949.747,2.876,2.876,0,0,0,1.488-.376A2.987,2.987,0,0,0,62.6,25.773l-.983-.548a1.96,1.96,0,0,1-.655.762,1.745,1.745,0,0,1-.94.237,1.34,1.34,0,0,1-1.015-.4,1.711,1.711,0,0,1-.425-1.114h4.072v-.221a2.713,2.713,0,0,0-.688-1.971A2.569,2.569,0,0,0,60.049,21.814Zm-4.845,0a2.827,2.827,0,0,0-2.043.755,2.644,2.644,0,0,0-.782,1.984,2.7,2.7,0,0,0,.755,1.976,2.638,2.638,0,0,0,1.952.763,3.227,3.227,0,0,0,.781-.092,2.706,2.706,0,0,0,.69-.274V25.585a1.641,1.641,0,0,1-.585.481,1.757,1.757,0,0,1-.758.158,1.581,1.581,0,0,1-1.2-.454,1.991,1.991,0,0,1,0-2.473,1.5,1.5,0,0,1,1.145-.463,1.923,1.923,0,0,1,.77.156,1.837,1.837,0,0,1,.625.452V22.131a2.436,2.436,0,0,0-.623-.239A3.212,3.212,0,0,0,55.2,21.814Zm-6.268,0a2.579,2.579,0,0,0-1.926.771,2.719,2.719,0,0,0-.749,1.968,2.75,2.75,0,0,0,.724,1.993,2.607,2.607,0,0,0,1.95.747,2.881,2.881,0,0,0,1.488-.376,3,3,0,0,0,1.064-1.144l-.984-.548a1.946,1.946,0,0,1-.655.762,1.74,1.74,0,0,1-.94.237,1.343,1.343,0,0,1-1.015-.4,1.709,1.709,0,0,1-.424-1.114h4.071v-.221a2.71,2.71,0,0,0-.688-1.971A2.568,2.568,0,0,0,48.937,21.814Zm20.781.177v1.021h.891v4.072h1.166V23.012h.892V21.992h-.892V20.064H70.609v1.928Zm-3.223.811a1.018,1.018,0,0,1,.868.33,2.48,2.48,0,0,1,.244,1.336v2.615h1.176V23.995a5.447,5.447,0,0,0-.059-.977,1.452,1.452,0,0,0-.193-.489,1.419,1.419,0,0,0-.626-.535,2.366,2.366,0,0,0-.969-.18,2.512,2.512,0,0,0-1.149.242,2.208,2.208,0,0,0-.822.768v-.833h-1.1v5.092h1.166v-2.32a5.781,5.781,0,0,1,.05-.916,1.168,1.168,0,0,1,.18-.47,1.2,1.2,0,0,1,.5-.424A1.692,1.692,0,0,1,66.495,22.8Zm-24.723.763h.145l2.615,3.518h1.445L43.27,23.506a2.017,2.017,0,0,0,1.348-.642,2.218,2.218,0,0,0,.456-1.48,2.437,2.437,0,0,0-.2-.988,1.876,1.876,0,0,0-.564-.736,1.917,1.917,0,0,0-.738-.338,5.65,5.65,0,0,0-1.217-.1H40.574v7.863h1.2V23.567Zm19.674.36H58.658a1.5,1.5,0,0,1,.489-.843,1.438,1.438,0,0,1,.923-.28,1.469,1.469,0,0,1,.957.288,1.242,1.242,0,0,1,.418.834Zm-11.113,0H47.545a1.512,1.512,0,0,1,.489-.843,1.443,1.443,0,0,1,.924-.28,1.467,1.467,0,0,1,.956.288,1.234,1.234,0,0,1,.418.834Zm-23.647-.5a2.745,2.745,0,1,1,2.744-2.744A2.748,2.748,0,0,1,26.686,23.43Zm15.4-.858h-.231V20.316h.231a2.36,2.36,0,0,1,1.324.266,1.075,1.075,0,0,1,.357.915.964.964,0,0,1-.333.838A2.592,2.592,0,0,1,42.083,22.572Z"/></svg>