<svg xmlns="http://www.w3.org/2000/svg" width="110.001" height="72.001" viewBox="0 0 110.001 72.001"><defs><style>.a{fill:#2094b7;}</style></defs><path class="a" d="M110,72H0V0H110V72h0ZM28.311,41.086h7.312V46.2a.733.733,0,0,0,.732.732h2.924a.733.733,0,0,0,.732-.732V36.221l-6.853-2.447H25.387a1.464,1.464,0,0,1-1.463-1.463,1.462,1.462,0,0,0-2.925,0,4.391,4.391,0,0,0,2.925,4.118V46.2a.732.732,0,0,0,.731.732h2.925a.732.732,0,0,0,.731-.732V41.087Zm57.165-3.351-.967.526a1.909,1.909,0,0,0,.773.854,2.506,2.506,0,0,0,1.241.279,2.432,2.432,0,0,0,1.525-.432,1.44,1.44,0,0,0,.554-1.2,1.3,1.3,0,0,0-.3-.878,2.58,2.58,0,0,0-1.007-.631c-.1-.04-.232-.092-.44-.166-.6-.218-.9-.462-.9-.725a.511.511,0,0,1,.2-.421.841.841,0,0,1,.535-.158.979.979,0,0,1,.529.142.764.764,0,0,1,.32.384l.827-.57a1.346,1.346,0,0,0-.615-.62,2.2,2.2,0,0,0-1.012-.218,2.223,2.223,0,0,0-1.416.424,1.354,1.354,0,0,0-.535,1.107,1.209,1.209,0,0,0,.325.849,3.363,3.363,0,0,0,1.142.688c.1.044.239.1.413.161.527.2.795.434.795.708a.6.6,0,0,1-.222.492.96.96,0,0,1-.616.179,1.3,1.3,0,0,1-.746-.2A1.014,1.014,0,0,1,85.477,37.734Zm-7.755-3.819a2.074,2.074,0,0,0-1.655.749,2.961,2.961,0,0,0-.634,1.969,3.059,3.059,0,0,0,.621,2.022,2.109,2.109,0,0,0,1.7.738,1.933,1.933,0,0,0,1.681-.87v.661H80.6V34.093H79.434v.832a1.533,1.533,0,0,0-.647-.75A2.075,2.075,0,0,0,77.721,33.916Zm4.543-3.056v8.325H83.43V30.859ZM72.086,34.893a.871.871,0,0,1,.777.325,2.77,2.77,0,0,1,.217,1.351v2.615h1.165v-3.5a3.719,3.719,0,0,0-.045-.661,1.279,1.279,0,0,0-.143-.4,1.369,1.369,0,0,0-.585-.54,1.986,1.986,0,0,0-.881-.185,2.18,2.18,0,0,0-1.034.242,2.716,2.716,0,0,0-.856.768,1.557,1.557,0,0,0-.6-.76,1.814,1.814,0,0,0-.988-.249,2.135,2.135,0,0,0-1.045.245,2.309,2.309,0,0,0-.792.776v-.832h-1.1v5.091H67.35v-2.32a7.052,7.052,0,0,1,.042-.95,1.235,1.235,0,0,1,.15-.435,1.2,1.2,0,0,1,.452-.43,1.3,1.3,0,0,1,.628-.156.856.856,0,0,1,.787.365,2.671,2.671,0,0,1,.229,1.31v2.615h1.176v-2.32a2.932,2.932,0,0,1,.292-1.534A1.1,1.1,0,0,1,72.086,34.893Zm-8.734-.8v5.091h1.166V34.093Zm-3.893.811a1.017,1.017,0,0,1,.868.33,2.478,2.478,0,0,1,.244,1.335v2.615h1.176V36.1a5.449,5.449,0,0,0-.059-.977,1.452,1.452,0,0,0-.193-.489,1.408,1.408,0,0,0-.626-.535,2.367,2.367,0,0,0-.969-.18,2.513,2.513,0,0,0-1.149.241,2.219,2.219,0,0,0-.822.769v-.832h-1.1v5.091H58v-2.32a5.774,5.774,0,0,1,.05-.915,1.168,1.168,0,0,1,.18-.47,1.212,1.212,0,0,1,.5-.425A1.7,1.7,0,0,1,59.459,34.9ZM50.833,37.16h3.116l.891,2.024h1.348l-3.8-8.175-3.808,8.175H49.92l.912-2.024ZM34.9,25a.754.754,0,0,0-.509.2.721.721,0,0,0-.227.532V32.58l5.849,2.089V33.043h1.462A2.928,2.928,0,0,0,44.4,30.119V28.656a.732.732,0,0,0-.731-.732H40.741l-.327-.653a1.455,1.455,0,0,0-1.309-.808h-2.45L35.41,25.215A.724.724,0,0,0,34.9,25Zm29.036,6.165a.715.715,0,0,0-.518.215.7.7,0,0,0-.218.51.744.744,0,0,0,.736.736.7.7,0,0,0,.516-.212.72.72,0,0,0,.21-.524.708.708,0,0,0-.725-.725Zm14.116,7.192a1.27,1.27,0,0,1-1.031-.44,2.3,2.3,0,0,1,.013-2.511,1.285,1.285,0,0,1,1.039-.454,1.271,1.271,0,0,1,1.029.44,1.87,1.87,0,0,1,.368,1.23,1.915,1.915,0,0,1-.4,1.256A1.269,1.269,0,0,1,78.049,38.357ZM53.5,36.1H51.306l.806-1.794c.052-.131.1-.27.148-.411s.091-.3.137-.481c.051.185.1.348.15.5s.1.274.145.4l.8,1.792ZM38.548,30.119a.731.731,0,1,1,.731-.732A.733.733,0,0,1,38.548,30.119Z"/></svg>