<svg xmlns="http://www.w3.org/2000/svg" width="72.666" height="26.682" viewBox="0 0 72.666 26.682"><defs><style>.a{fill:#fff;}</style></defs><path class="a" d="M15.378,26.682a.892.892,0,0,1-.89-.891V19.564H5.6v6.227a.892.892,0,0,1-.89.891H1.148a.89.89,0,0,1-.887-.891V13.9A5.329,5.329,0,0,1-3.3,8.893,1.779,1.779,0,0,1-1.521,7.114,1.779,1.779,0,0,1,.26,8.893a1.781,1.781,0,0,0,1.778,1.78H11.49l8.333,2.975V25.791a.889.889,0,0,1-.887.891ZM66.048,16.93a1.879,1.879,0,0,1-.773-.854l.968-.527a.992.992,0,0,0,.4.581,1.289,1.289,0,0,0,.746.2A.95.95,0,0,0,68,16.147a.594.594,0,0,0,.222-.491c0-.275-.265-.511-.793-.709-.178-.063-.319-.117-.413-.161a3.328,3.328,0,0,1-1.142-.686,1.21,1.21,0,0,1-.326-.85,1.348,1.348,0,0,1,.534-1.106,2.22,2.22,0,0,1,1.418-.423,2.191,2.191,0,0,1,1.011.215,1.359,1.359,0,0,1,.615.622l-.827.567a.767.767,0,0,0-.319-.383,1,1,0,0,0-.531-.142.848.848,0,0,0-.534.158.508.508,0,0,0-.2.424c0,.262.3.5.9.723.188.066.336.124.44.168a2.552,2.552,0,0,1,1,.631,1.283,1.283,0,0,1,.306.878,1.434,1.434,0,0,1-.554,1.2,2.433,2.433,0,0,1-1.526.431A2.5,2.5,0,0,1,66.048,16.93Zm-9.23-.46a3.042,3.042,0,0,1-.622-2.02,2.935,2.935,0,0,1,.635-1.969,2.061,2.061,0,0,1,1.653-.75,2.1,2.1,0,0,1,1.069.259,1.519,1.519,0,0,1,.645.75v-.83h1.166V17H60.2v-.662a1.928,1.928,0,0,1-1.68.87A2.1,2.1,0,0,1,56.817,16.47Zm.978-3.249a1.917,1.917,0,0,0-.38,1.26,1.925,1.925,0,0,0,.366,1.253,1.379,1.379,0,0,0,2.053-.036,1.906,1.906,0,0,0,.4-1.261,1.87,1.87,0,0,0-.37-1.229,1.417,1.417,0,0,0-2.066.014ZM63.031,17V8.674H64.2V17Zm-9.187,0V14.387a2.782,2.782,0,0,0-.215-1.354.875.875,0,0,0-.776-.322,1.09,1.09,0,0,0-.981.437,2.916,2.916,0,0,0-.292,1.532V17H50.4V14.387a2.663,2.663,0,0,0-.229-1.311.847.847,0,0,0-.786-.366,1.268,1.268,0,0,0-.628.154,1.182,1.182,0,0,0-.454.43,1.205,1.205,0,0,0-.148.434,6.608,6.608,0,0,0-.044.951V17H46.948V11.91h1.1v.83a2.305,2.305,0,0,1,.793-.776,2.135,2.135,0,0,1,1.045-.242,1.79,1.79,0,0,1,.988.249,1.542,1.542,0,0,1,.595.759,2.672,2.672,0,0,1,.857-.766,2.158,2.158,0,0,1,1.035-.242,1.967,1.967,0,0,1,.88.185,1.287,1.287,0,0,1,.729.938,3.664,3.664,0,0,1,.044.659V17Zm-9.725,0V11.91h1.166V17Zm-2.782,0V14.387a2.487,2.487,0,0,0-.245-1.338,1.021,1.021,0,0,0-.867-.329,1.684,1.684,0,0,0-.729.151,1.184,1.184,0,0,0-.5.423,1.131,1.131,0,0,0-.181.471,5.867,5.867,0,0,0-.051.914V17H37.6V11.91h1.1v.83a2.221,2.221,0,0,1,.823-.767,2.506,2.506,0,0,1,1.149-.242,2.373,2.373,0,0,1,.968.179,1.412,1.412,0,0,1,.628.534,1.516,1.516,0,0,1,.192.49,5.3,5.3,0,0,1,.061.978V17ZM35.6,17l-.891-2.026H31.6L30.685,17H29.34l3.811-8.176L36.951,17Zm-2.581-5.293c-.047.148-.1.286-.148.41l-.806,1.794h2.194l-.806-1.794c-.047-.114-.094-.249-.145-.4s-.1-.312-.151-.494C33.117,11.4,33.073,11.557,33.023,11.708ZM12.71,9.218V.892A.889.889,0,0,1,14.229.263l1.515,1.516h2.981a1.779,1.779,0,0,1,1.593.984l.4.793h3.558a.89.89,0,0,1,.887.891V6.225A3.555,3.555,0,0,1,21.6,9.783H19.824v1.979Zm4.446-3.881a.891.891,0,1,0,.89-.891A.889.889,0,0,0,17.156,5.337Zm27.023,4.89a.721.721,0,0,1-.218-.521.7.7,0,0,1,.218-.511.724.724,0,0,1,.518-.215.715.715,0,0,1,.521.208.7.7,0,0,1,.205.518.721.721,0,0,1-.208.524.7.7,0,0,1-.518.212A.708.708,0,0,1,44.179,10.227Z" transform="translate(3.298)"/></svg>