<svg xmlns="http://www.w3.org/2000/svg" width="110.001" height="72.001" viewBox="0 0 110.001 72.001"><defs><style>.a{fill:#2094b7;}</style></defs><path class="a" d="M110,72H36A36.01,36.01,0,0,1,21.987,2.829,35.791,35.791,0,0,1,36,0h74V72h0ZM36.336,24A8.345,8.345,0,0,0,28,32.336c0,3.231,2.267,7.267,4.168,10.084a54.633,54.633,0,0,0,4.165,5.392A53.854,53.854,0,0,0,40.5,42.421c1.9-2.818,4.167-6.855,4.167-10.084A8.345,8.345,0,0,0,36.336,24ZM70.161,35.21a2.346,2.346,0,0,0-1.75.7,2.473,2.473,0,0,0-.68,1.789,2.5,2.5,0,0,0,.659,1.812,2.365,2.365,0,0,0,1.772.679,2.616,2.616,0,0,0,1.353-.342,2.711,2.711,0,0,0,.967-1.039l-.893-.5a1.788,1.788,0,0,1-.6.694,1.59,1.59,0,0,1-.855.214,1.219,1.219,0,0,1-.923-.364,1.557,1.557,0,0,1-.386-1.013h3.7v-.2A2.467,2.467,0,0,0,71.9,35.85,2.335,2.335,0,0,0,70.161,35.21Zm-4.4,0A2.577,2.577,0,0,0,63.9,35.9a2.408,2.408,0,0,0-.71,1.8,2.458,2.458,0,0,0,.686,1.8,2.4,2.4,0,0,0,1.775.693,2.981,2.981,0,0,0,.711-.083,2.511,2.511,0,0,0,.627-.249v-1.22a1.487,1.487,0,0,1-.532.436,1.592,1.592,0,0,1-.689.144,1.437,1.437,0,0,1-1.087-.412,1.809,1.809,0,0,1,0-2.248,1.357,1.357,0,0,1,1.04-.42,1.744,1.744,0,0,1,.7.141,1.671,1.671,0,0,1,.569.41V35.5a2.192,2.192,0,0,0-.566-.217A2.911,2.911,0,0,0,65.758,35.21Zm-5.7,0a2.346,2.346,0,0,0-1.751.7,2.473,2.473,0,0,0-.681,1.789,2.5,2.5,0,0,0,.66,1.812,2.365,2.365,0,0,0,1.772.679,2.616,2.616,0,0,0,1.353-.342,2.711,2.711,0,0,0,.967-1.039l-.893-.5a1.788,1.788,0,0,1-.6.694,1.591,1.591,0,0,1-.855.214,1.219,1.219,0,0,1-.922-.364,1.557,1.557,0,0,1-.386-1.013h3.7v-.2A2.467,2.467,0,0,0,61.8,35.85,2.335,2.335,0,0,0,60.059,35.21Zm18.892.161V36.3h.811V40h1.059V36.3h.81v-.928h-.81V33.619H79.762v1.752Zm-2.929.737a.926.926,0,0,1,.788.3,2.249,2.249,0,0,1,.222,1.213V40H78.1V37.193a4.968,4.968,0,0,0-.054-.889,1.317,1.317,0,0,0-.175-.444,1.284,1.284,0,0,0-.569-.486,2.155,2.155,0,0,0-.881-.164,2.291,2.291,0,0,0-1.045.22,2.007,2.007,0,0,0-.747.7v-.757h-1V40h1.059V37.891a5.239,5.239,0,0,1,.047-.833,1.061,1.061,0,0,1,.163-.427,1.1,1.1,0,0,1,.457-.386A1.545,1.545,0,0,1,76.021,36.108ZM53.545,36.8h.131L56.056,40h1.313l-2.461-3.252a1.83,1.83,0,0,0,1.225-.583,2.014,2.014,0,0,0,.415-1.346,2.212,2.212,0,0,0-.18-.9,1.7,1.7,0,0,0-.513-.669,1.737,1.737,0,0,0-.671-.308,5.093,5.093,0,0,0-1.106-.093H52.456V40h1.089V36.8Zm17.886.327H68.9a1.369,1.369,0,0,1,.445-.766,1.306,1.306,0,0,1,.84-.255,1.332,1.332,0,0,1,.869.262,1.123,1.123,0,0,1,.381.758Zm-10.1,0H58.794a1.369,1.369,0,0,1,.445-.766,1.306,1.306,0,0,1,.84-.255,1.332,1.332,0,0,1,.869.262,1.123,1.123,0,0,1,.381.758Zm-7.5-1.23h-.211v-2.05h.211a2.149,2.149,0,0,1,1.2.241.977.977,0,0,1,.325.832.873.873,0,0,1-.3.761A2.346,2.346,0,0,1,53.829,35.9Zm-17.493-.586a2.977,2.977,0,1,1,2.976-2.976A2.98,2.98,0,0,1,36.336,35.312Z"/></svg>