<svg xmlns="http://www.w3.org/2000/svg" width="110.001" height="72.001" viewBox="0 0 110.001 72.001"><defs><style>.a{fill:#2094b7;}</style></defs><path class="a" d="M110,72H36A36.01,36.01,0,0,1,21.987,2.829,35.791,35.791,0,0,1,36,0h74V72h0ZM28.832,23A8.841,8.841,0,0,0,20,31.831c0,3.422,2.4,7.7,4.415,10.685a57.883,57.883,0,0,0,4.416,5.717l.007-.007a57.988,57.988,0,0,0,4.41-5.709c2.014-2.985,4.415-7.263,4.415-10.685A8.841,8.841,0,0,0,28.832,23ZM86.916,37.218v1.155a3.77,3.77,0,0,0,1.562.3,3.86,3.86,0,0,0,.889-.1,2.421,2.421,0,0,0,.744-.3,1.629,1.629,0,0,0,.516-.516,1.36,1.36,0,0,0,.193-.73,1.5,1.5,0,0,0-.107-.594,1.333,1.333,0,0,0-.306-.44,2.147,2.147,0,0,0-.481-.341c-.191-.1-.405-.2-.636-.3-.165-.056-.325-.113-.476-.169a1.971,1.971,0,0,1-.354-.172.678.678,0,0,1-.223-.218.566.566,0,0,1-.076-.3.49.49,0,0,1,.076-.266.659.659,0,0,1,.21-.206,1.092,1.092,0,0,1,.325-.135,1.781,1.781,0,0,1,.427-.048,2.31,2.31,0,0,1,1.332.4v-1.09a3.8,3.8,0,0,0-1.364-.231,3.3,3.3,0,0,0-.833.105,2.411,2.411,0,0,0-.719.311,1.633,1.633,0,0,0-.5.51,1.305,1.305,0,0,0-.188.7,1.61,1.61,0,0,0,.091.563,1.3,1.3,0,0,0,.272.433,1.862,1.862,0,0,0,.451.341,5.483,5.483,0,0,0,.609.284l.013,0,.484.178a1.991,1.991,0,0,1,.387.183.916.916,0,0,1,.26.233.527.527,0,0,1,.1.32c0,.442-.379.666-1.128.666a2.5,2.5,0,0,1-1.542-.531Zm-10.071-4.3a2.716,2.716,0,0,0-2.927,2.944,2.793,2.793,0,0,0,.76,2.043,2.738,2.738,0,0,0,2.033.771,2.8,2.8,0,0,0,2.086-.792,2.9,2.9,0,0,0,.777-2.109,2.938,2.938,0,0,0-.72-2.1A2.65,2.65,0,0,0,76.845,32.915Zm-13.262.93c.742,0,1.118.4,1.118,1.176l-1.633.23c-1.19.171-1.794.782-1.794,1.815a1.547,1.547,0,0,0,.459,1.165A1.768,1.768,0,0,0,63,38.673a1.827,1.827,0,0,0,1.67-.988H64.7v.86H65.9V34.967a1.833,1.833,0,0,0-2.084-2.052,3.88,3.88,0,0,0-2.009.516v1.091A2.664,2.664,0,0,1,63.583,33.845Zm-4.458-.93a2.9,2.9,0,0,0-2.162.824,3,3,0,0,0-.808,2.183,2.723,2.723,0,0,0,.752,1.985,2.658,2.658,0,0,0,1.976.766,3.082,3.082,0,0,0,1.563-.382V37.207a2,2,0,0,1-1.267.478,1.7,1.7,0,0,1-1.276-.494,1.872,1.872,0,0,1-.475-1.348,1.963,1.963,0,0,1,.5-1.4,1.709,1.709,0,0,1,1.294-.535,2.016,2.016,0,0,1,1.225.43v-1.16A3.172,3.172,0,0,0,59.125,32.915Zm-6.611,0a2.716,2.716,0,0,0-2.928,2.944,2.8,2.8,0,0,0,.76,2.043,2.738,2.738,0,0,0,2.033.771,2.8,2.8,0,0,0,2.087-.792,2.9,2.9,0,0,0,.776-2.109,2.938,2.938,0,0,0-.719-2.1A2.652,2.652,0,0,0,52.514,32.915Zm14.33.129v.978h.918v3.11c0,1.019.539,1.536,1.6,1.536a2.174,2.174,0,0,0,.961-.183V37.5a.863.863,0,0,1-.548.183.738.738,0,0,1-.59-.21,1.089,1.089,0,0,1-.177-.7v-2.75h1.316v-.978H69.008V31.416l-1.247.355v1.273ZM83.4,33.9c.723,0,1.09.519,1.09,1.542v3.1h1.247V35.182a2.627,2.627,0,0,0-.473-1.684,1.667,1.667,0,0,0-1.37-.583,1.967,1.967,0,0,0-1.783,1.042h-.022v-.913H80.841v5.5h1.252V35.407a1.591,1.591,0,0,1,.37-1.076A1.2,1.2,0,0,1,83.4,33.9Zm-12-.859v5.5h1.246v-5.5ZM44.7,30.842v7.7h4.265v-1.08H45.983V30.842Zm27.323-.371a.738.738,0,0,0-.524.2.674.674,0,0,0-.218.51.659.659,0,0,0,.218.5.8.8,0,0,0,1.061-.008.663.663,0,0,0,.22-.5.669.669,0,0,0-.22-.51A.762.762,0,0,0,72.027,30.471Zm-8.642,7.256a.972.972,0,0,1-.669-.222.735.735,0,0,1-.25-.572.764.764,0,0,1,.271-.669,1.848,1.848,0,0,1,.809-.26l1.155-.161v.478a1.428,1.428,0,0,1-.374,1.007A1.241,1.241,0,0,1,63.385,37.727Zm13.384-.042a1.451,1.451,0,0,1-1.149-.5,2.023,2.023,0,0,1-.429-1.362,2.148,2.148,0,0,1,.424-1.408,1.43,1.43,0,0,1,1.155-.51A1.371,1.371,0,0,1,77.9,34.4a2.209,2.209,0,0,1,.394,1.4A2.176,2.176,0,0,1,77.9,37.2,1.377,1.377,0,0,1,76.769,37.685Zm-24.331,0a1.449,1.449,0,0,1-1.149-.5,2.022,2.022,0,0,1-.43-1.362,2.148,2.148,0,0,1,.425-1.408,1.428,1.428,0,0,1,1.155-.51,1.367,1.367,0,0,1,1.13.494,2.2,2.2,0,0,1,.4,1.4,2.171,2.171,0,0,1-.4,1.391A1.374,1.374,0,0,1,52.438,37.685Zm-23.607-2.7a3.154,3.154,0,1,1,3.155-3.155A3.158,3.158,0,0,1,28.832,34.986Z"/></svg>