<svg xmlns="http://www.w3.org/2000/svg" width="79" height="34" viewBox="0 0 79 34"><defs><style>.a{fill:#fff;}</style></defs><path class="a" d="M0,34V30H79v4ZM11.574,8.4a8.4,8.4,0,1,1,16.8,0c0,6.3-8.4,15.6-8.4,15.6S11.574,14.7,11.574,8.4Zm5.4,0a3,3,0,1,0,3-3A3,3,0,0,0,16.973,8.4ZM53.1,15.463a2.739,2.739,0,0,1-.725-1.993,2.708,2.708,0,0,1,.75-1.968,2.876,2.876,0,0,1,3.843-.067,2.705,2.705,0,0,1,.688,1.972v.22H53.582a1.708,1.708,0,0,0,.425,1.115,1.337,1.337,0,0,0,1.015.4,1.735,1.735,0,0,0,.94-.236,1.954,1.954,0,0,0,.655-.763l.983.548a2.971,2.971,0,0,1-1.063,1.144,2.861,2.861,0,0,1-1.489.376A2.592,2.592,0,0,1,53.1,15.463ZM54.147,12a1.5,1.5,0,0,0-.489.843h2.787a1.236,1.236,0,0,0-.418-.835,1.462,1.462,0,0,0-.957-.287A1.434,1.434,0,0,0,54.147,12Zm-6.013,3.448a2.69,2.69,0,0,1-.755-1.976,2.633,2.633,0,0,1,.782-1.984,2.817,2.817,0,0,1,2.043-.754,3.194,3.194,0,0,1,.731.077,2.389,2.389,0,0,1,.623.239v1.31a1.812,1.812,0,0,0-.625-.451,1.9,1.9,0,0,0-.77-.157,1.488,1.488,0,0,0-1.144.463,1.722,1.722,0,0,0-.43,1.224,1.734,1.734,0,0,0,.433,1.249,1.57,1.57,0,0,0,1.194.454,1.735,1.735,0,0,0,.758-.158,1.625,1.625,0,0,0,.585-.481v1.343a2.7,2.7,0,0,1-.69.274,3.215,3.215,0,0,1-.781.092A2.627,2.627,0,0,1,48.134,15.447Zm-6.147.016a2.735,2.735,0,0,1-.725-1.993A2.707,2.707,0,0,1,42.01,11.5a2.876,2.876,0,0,1,3.843-.067,2.7,2.7,0,0,1,.688,1.972v.22H42.47a1.713,1.713,0,0,0,.424,1.115,1.339,1.339,0,0,0,1.015.4,1.733,1.733,0,0,0,.94-.236,1.948,1.948,0,0,0,.656-.763l.983.548a2.98,2.98,0,0,1-1.064,1.144,2.855,2.855,0,0,1-1.488.376A2.592,2.592,0,0,1,41.987,15.463ZM43.034,12a1.5,1.5,0,0,0-.489.843h2.788a1.233,1.233,0,0,0-.419-.835,1.461,1.461,0,0,0-.956-.287A1.436,1.436,0,0,0,43.034,12Zm22.575,4V11.929h-.891v-1.02h.891V8.98h1.166v1.929h.892v1.02h-.892V16Zm-3,0V13.385a2.462,2.462,0,0,0-.244-1.335,1.013,1.013,0,0,0-.868-.33,1.685,1.685,0,0,0-.728.15,1.209,1.209,0,0,0-.5.424,1.174,1.174,0,0,0-.18.47,5.935,5.935,0,0,0-.05.916V16H58.868V10.909h1.1v.833a2.2,2.2,0,0,1,.822-.769,2.5,2.5,0,0,1,1.149-.241,2.342,2.342,0,0,1,.969.18,1.4,1.4,0,0,1,.626.534,1.474,1.474,0,0,1,.194.489,5.537,5.537,0,0,1,.058.978V16ZM39.532,16l-2.615-3.518h-.145V16h-1.2V8.137h1.783a5.561,5.561,0,0,1,1.217.1,1.905,1.905,0,0,1,.739.338,1.875,1.875,0,0,1,.563.736,2.426,2.426,0,0,1,.2.988,2.208,2.208,0,0,1-.456,1.48,2.007,2.007,0,0,1-1.348.642L40.977,16Zm-2.68-4.512h.231a2.57,2.57,0,0,0,1.348-.237.957.957,0,0,0,.333-.838,1.068,1.068,0,0,0-.357-.915,2.35,2.35,0,0,0-1.324-.266h-.231Z"/></svg>