<svg xmlns="http://www.w3.org/2000/svg" width="90.999" height="47" viewBox="0 0 90.999 47"><defs><style>.a{fill:#2094b7;}</style></defs><path class="a" d="M81.5,34h-44A23.5,23.5,0,0,1,14,10.5,23.5,23.5,0,0,1,37.5-13h44A23.5,23.5,0,0,1,105,10.5,23.5,23.5,0,0,1,81.5,34ZM40.686,0A7.694,7.694,0,0,0,33,7.687c0,2.977,2.089,6.7,3.842,9.3a50.384,50.384,0,0,0,3.842,4.977,50.723,50.723,0,0,0,3.842-4.977c1.753-2.6,3.842-6.32,3.842-9.3A7.694,7.694,0,0,0,40.686,0ZM74.048,8.813a2.584,2.584,0,0,0-1.925.771,2.726,2.726,0,0,0-.748,1.969,2.762,2.762,0,0,0,.724,2,2.6,2.6,0,0,0,1.948.744,2.873,2.873,0,0,0,1.488-.374A3.023,3.023,0,0,0,76.6,12.773l-.984-.546a1.931,1.931,0,0,1-.654.761,1.747,1.747,0,0,1-.941.236,1.338,1.338,0,0,1-1.014-.4,1.724,1.724,0,0,1-.424-1.114h4.071v-.22a2.723,2.723,0,0,0-.687-1.973A2.573,2.573,0,0,0,74.048,8.813Zm-4.845,0a2.834,2.834,0,0,0-2.042.755,2.649,2.649,0,0,0-.781,1.985,2.709,2.709,0,0,0,.754,1.979,2.644,2.644,0,0,0,1.952.761,3.217,3.217,0,0,0,.781-.091,2.7,2.7,0,0,0,.691-.273V12.588a1.67,1.67,0,0,1-.584.48,1.8,1.8,0,0,1-.761.156,1.579,1.579,0,0,1-1.194-.453,1.755,1.755,0,0,1-.431-1.252,1.734,1.734,0,0,1,.427-1.221,1.494,1.494,0,0,1,1.148-.464,1.9,1.9,0,0,1,.768.157,1.8,1.8,0,0,1,.627.45V9.131a2.428,2.428,0,0,0-.624-.237A3.194,3.194,0,0,0,69.2,8.813Zm-6.266,0a2.574,2.574,0,0,0-1.925.771,2.717,2.717,0,0,0-.751,1.969,2.762,2.762,0,0,0,.724,2,2.608,2.608,0,0,0,1.952.744,2.889,2.889,0,0,0,1.488-.374,3.039,3.039,0,0,0,1.064-1.146l-.984-.546a1.928,1.928,0,0,1-.657.761,1.739,1.739,0,0,1-.937.236,1.334,1.334,0,0,1-1.018-.4,1.724,1.724,0,0,1-.424-1.114H65.54v-.22a2.713,2.713,0,0,0-.687-1.973A2.568,2.568,0,0,0,62.937,8.813ZM55.77,10.565h.147l2.616,3.517h1.445l-2.706-3.576a2.018,2.018,0,0,0,1.348-.641,2.223,2.223,0,0,0,.454-1.479,2.482,2.482,0,0,0-.2-.991,1.815,1.815,0,0,0-1.3-1.074,5.683,5.683,0,0,0-1.215-.1H54.573v7.86h1.2V10.566Zm28.838-.554v4.07h1.164v-4.07h.894V8.991h-.894V7.065H84.609V8.991h-.891v1.021ZM80.494,9.8a1.021,1.021,0,0,1,.868.33,2.486,2.486,0,0,1,.243,1.338v2.612h1.178V11a5.4,5.4,0,0,0-.06-.978,1.469,1.469,0,0,0-.194-.49,1.416,1.416,0,0,0-.624-.534,2.36,2.36,0,0,0-.971-.181,2.463,2.463,0,0,0-1.148.244,2.206,2.206,0,0,0-.824.768V8.991H77.869v5.091h1.164V11.764a5.927,5.927,0,0,1,.05-.914,1.224,1.224,0,0,1,.18-.471,1.191,1.191,0,0,1,.5-.424A1.662,1.662,0,0,1,80.494,9.8Zm-5.048,1.124h-2.79a1.509,1.509,0,0,1,.49-.844,1.69,1.69,0,0,1,1.879.01,1.232,1.232,0,0,1,.42.833Zm-11.114,0H61.546a1.524,1.524,0,0,1,.487-.844,1.444,1.444,0,0,1,.924-.28,1.463,1.463,0,0,1,.958.29,1.211,1.211,0,0,1,.417.833Zm-23.646-.5a2.744,2.744,0,1,1,2.746-2.742A2.747,2.747,0,0,1,40.686,10.429Zm15.4-.857H55.85V7.315h.234a2.366,2.366,0,0,1,1.324.268,1.073,1.073,0,0,1,.357.914.962.962,0,0,1-.334.837A2.54,2.54,0,0,1,56.084,9.571Z" transform="translate(-13.999 13.001)"/></svg>