<svg xmlns="http://www.w3.org/2000/svg" width="53.666" height="24.316" viewBox="0 0 53.666 24.316"><defs><style>.a{fill:#fff;}</style></defs><path class="a" d="M2715-13244.4a8.5,8.5,0,0,1,8.511-8.512,8.5,8.5,0,0,1,8.511,8.512c0,6.383-8.511,15.8-8.511,15.8S2715-13238.021,2715-13244.4Zm5.471,0a3.044,3.044,0,0,0,3.04,3.04,3.044,3.044,0,0,0,3.04-3.04,3.041,3.041,0,0,0-3.04-3.04A3.041,3.041,0,0,0,2720.471-13244.4Zm33.63,6.951a2.729,2.729,0,0,1-.725-1.992,2.711,2.711,0,0,1,.748-1.969,2.572,2.572,0,0,1,1.926-.772,2.549,2.549,0,0,1,1.916.705,2.7,2.7,0,0,1,.688,1.973v.22h-4.071a1.705,1.705,0,0,0,.426,1.114,1.337,1.337,0,0,0,1.014.4,1.758,1.758,0,0,0,.941-.236,1.961,1.961,0,0,0,.655-.762l.981.545a2.989,2.989,0,0,1-1.064,1.147,2.864,2.864,0,0,1-1.487.373A2.585,2.585,0,0,1,2754.1-13237.453Zm1.048-3.466a1.5,1.5,0,0,0-.489.845h2.787a1.227,1.227,0,0,0-.419-.835,1.477,1.477,0,0,0-.958-.289A1.428,1.428,0,0,0,2755.148-13240.919Zm-6.013,3.449a2.7,2.7,0,0,1-.755-1.976,2.627,2.627,0,0,1,.782-1.985,2.818,2.818,0,0,1,2.042-.756,3.168,3.168,0,0,1,.732.08,2.246,2.246,0,0,1,.622.239v1.311a1.754,1.754,0,0,0-.625-.452,1.909,1.909,0,0,0-.771-.156,1.491,1.491,0,0,0-1.144.462,1.73,1.73,0,0,0-.429,1.225,1.752,1.752,0,0,0,.432,1.25,1.577,1.577,0,0,0,1.2.453,1.755,1.755,0,0,0,.755-.157,1.6,1.6,0,0,0,.585-.481v1.344a2.715,2.715,0,0,1-.688.272,3.308,3.308,0,0,1-.782.09A2.624,2.624,0,0,1,2749.135-13237.47Zm-6.146.017a2.729,2.729,0,0,1-.725-1.992,2.711,2.711,0,0,1,.748-1.969,2.572,2.572,0,0,1,1.926-.772,2.554,2.554,0,0,1,1.916.705,2.7,2.7,0,0,1,.688,1.973v.22h-4.071a1.705,1.705,0,0,0,.426,1.114,1.337,1.337,0,0,0,1.014.4,1.737,1.737,0,0,0,.938-.236,1.936,1.936,0,0,0,.655-.762l.984.545a2.989,2.989,0,0,1-1.064,1.147,2.864,2.864,0,0,1-1.487.373A2.581,2.581,0,0,1,2742.988-13237.453Zm1.048-3.466a1.5,1.5,0,0,0-.489.845h2.787a1.226,1.226,0,0,0-.419-.835,1.476,1.476,0,0,0-.958-.289A1.421,1.421,0,0,0,2744.036-13240.919Zm22.574,4v-4.074h-.891v-1.019h.891v-1.929h1.164v1.929h.891v1.019h-.891v4.074Zm-3,0v-2.618a2.457,2.457,0,0,0-.243-1.333,1,1,0,0,0-.868-.333,1.685,1.685,0,0,0-.728.153,1.2,1.2,0,0,0-.5.422,1.153,1.153,0,0,0-.18.469,6.011,6.011,0,0,0-.05.918v2.322h-1.167v-5.093h1.1v.832a2.168,2.168,0,0,1,.822-.769,2.517,2.517,0,0,1,1.147-.243,2.388,2.388,0,0,1,.971.18,1.428,1.428,0,0,1,.625.536,1.459,1.459,0,0,1,.193.488,5.38,5.38,0,0,1,.06.979v3.09Zm-23.073,0-2.618-3.52h-.143v3.52h-1.2v-7.866h1.783a5.653,5.653,0,0,1,1.214.1,1.849,1.849,0,0,1,.738.34,1.841,1.841,0,0,1,.565.734,2.421,2.421,0,0,1,.2.988,2.2,2.2,0,0,1-.459,1.48,2,2,0,0,1-1.347.642l2.707,3.579Zm-2.681-4.514h.229a2.6,2.6,0,0,0,1.35-.236.962.962,0,0,0,.333-.838,1.065,1.065,0,0,0-.359-.915,2.322,2.322,0,0,0-1.324-.266h-.229Z" transform="translate(-2714.999 13252.916)"/></svg>