<svg xmlns="http://www.w3.org/2000/svg" xmlns:xlink="http://www.w3.org/1999/xlink" width="359" height="98" viewBox="0 0 359 98"><defs><style>.a,.e{fill:#fff;}.b,.c{fill:#2094b7;}.c,.e{font-size:10px;font-family:FuturaBT-Medium, Futura Md BT;font-weight:500;}.d{fill:#f5f5f5;stroke:#fff;}.f{filter:url(#c);}.g{filter:url(#a);}</style><filter id="a" x="0" y="0" width="359" height="98" filterUnits="userSpaceOnUse"><feOffset dy="3" input="SourceAlpha"/><feGaussianBlur stdDeviation="3" result="b"/><feFlood flood-opacity="0.161"/><feComposite operator="in" in2="b"/><feComposite in="SourceGraphic"/></filter><filter id="c" x="14" y="15" width="117" height="69" filterUnits="userSpaceOnUse"><feOffset dy="3" input="SourceAlpha"/><feGaussianBlur stdDeviation="3" result="d"/><feFlood flood-opacity="0.161"/><feComposite operator="in" in2="d"/><feComposite in="SourceGraphic"/></filter></defs><g transform="translate(3148 -13536)"><g class="g" transform="matrix(1, 0, 0, 1, -3148, 13536)"><rect class="a" width="341" height="80" rx="40" transform="translate(9 6)"/></g><g class="f" transform="matrix(1, 0, 0, 1, -3148, 13536)"><rect class="b" width="99" height="51" rx="25.5" transform="translate(23 21)"/></g><g transform="translate(-3004 13571.916)"><path class="b" d="M22.562,5.161H19.651l-.326-.651a1.456,1.456,0,0,0-1.3-.8H15.584L14.343,2.465a.728.728,0,0,0-1.243.514V9.8l5.822,2.079V10.256h1.456A2.911,2.911,0,0,0,23.29,7.345V5.889A.728.728,0,0,0,22.562,5.161ZM17.467,7.345a.728.728,0,1,1,.728-.728A.728.728,0,0,1,17.467,7.345Zm-13.1,3.639A1.458,1.458,0,0,1,2.911,9.528,1.456,1.456,0,0,0,0,9.528a4.359,4.359,0,0,0,2.911,4.1v9.73a.728.728,0,0,0,.728.728H6.55a.728.728,0,0,0,.728-.728V18.262h7.278v5.095a.728.728,0,0,0,.728.728H18.2a.728.728,0,0,0,.728-.728V13.42L12.1,10.984Z" transform="translate(0 -2.25)"/><text class="c" transform="translate(27.636 14.084)"><tspan x="0" y="0">Animals</tspan></text></g><g transform="translate(-3101.058 13571.916)"><g transform="translate(-5.942)"><path class="d" d="M15.186,3A7.68,7.68,0,0,0,7.5,10.686c0,5.764,7.686,14.273,7.686,14.273s7.686-8.509,7.686-14.273A7.68,7.68,0,0,0,15.186,3Zm0,10.431a2.745,2.745,0,1,1,2.745-2.745A2.746,2.746,0,0,1,15.186,13.431Z" transform="translate(-7.5 -3)"/><text class="e" transform="translate(20.671 14.084)"><tspan x="0" y="0">Recent</tspan></text></g></g><g transform="translate(-2887 13570.916)"><path class="b" d="M9.725,11.114A5.557,5.557,0,1,0,4.168,5.557,5.557,5.557,0,0,0,9.725,11.114Zm3.89,1.389H12.89a7.558,7.558,0,0,1-6.33,0H5.835A5.837,5.837,0,0,0,0,18.339v1.806a2.084,2.084,0,0,0,2.084,2.084H17.366a2.084,2.084,0,0,0,2.084-2.084V18.339A5.837,5.837,0,0,0,13.615,12.5Z"/><text class="c" transform="translate(24.296 14.084)"><tspan x="0" y="0">Account</tspan></text></g></g></svg>